<?xml version="1.0" encoding="UTF-8"?>
<svg xmlns="http://www.w3.org/2000/svg" xmlns:xlink="http://www.w3.org/1999/xlink" viewBox="0 0 64 64" version="1.1" width="512px" height="512px">
<g id="surface1">
<path style=" fill:#F9E3AE;" d="M 36.121094 11.40625 C 47.496094 13.679688 54.871094 24.742188 52.597656 36.117188 C 50.320313 47.488281 39.257813 54.863281 27.886719 52.589844 C 16.511719 50.316406 9.136719 39.25 11.414063 27.878906 C 13.6875 16.507813 24.75 9.128906 36.121094 11.40625 Z "/>
<path style=" fill:#FAEFDE;" d="M 36.121094 11.410156 C 29.640625 10.101563 22.921875 11.933594 18 16.351563 C 17.308594 16.957031 16.933594 17.847656 16.984375 18.769531 C 17.035156 19.6875 17.507813 20.53125 18.261719 21.058594 C 19.410156 21.863281 20.960938 21.765625 22 20.820313 C 25.585938 17.621094 30.488281 16.332031 35.1875 17.355469 C 39.882813 18.382813 43.804688 21.597656 45.730469 26 C 46.3125 27.402344 47.847656 28.148438 49.308594 27.738281 C 50.132813 27.515625 50.824219 26.949219 51.203125 26.1875 C 51.585938 25.421875 51.625 24.535156 51.308594 23.738281 C 48.597656 17.371094 42.910156 12.757813 36.121094 11.410156 Z "/>
<path style=" fill:#F6D397;" d="M 24.511719 51.621094 C 30.679688 53.980469 37.597656 53.289063 43.179688 49.761719 C 43.964844 49.277344 44.480469 48.460938 44.585938 47.542969 C 44.6875 46.628906 44.367188 45.714844 43.710938 45.070313 C 42.714844 44.09375 41.175781 43.933594 40 44.679688 C 35.929688 47.242188 30.878906 47.695313 26.417969 45.902344 C 21.957031 44.109375 18.625 40.285156 17.460938 35.621094 C 17.121094 34.140625 15.730469 33.148438 14.21875 33.308594 C 13.378906 33.40625 12.613281 33.855469 12.121094 34.546875 C 11.628906 35.234375 11.449219 36.101563 11.628906 36.929688 C 13.234375 43.652344 18.054688 49.148438 24.511719 51.621094 Z "/>
<path style=" fill:#8D6C9F;" d="M 32 10 C 19.851563 10 10 19.851563 10 32 C 10 44.148438 19.851563 54 32 54 C 44.148438 54 54 44.148438 54 32 C 54 19.851563 44.148438 10 32 10 Z M 32 52 C 20.953125 52 12 43.046875 12 32 C 12 20.953125 20.953125 12 32 12 C 43.046875 12 52 20.953125 52 32 C 52 43.046875 43.046875 52 32 52 Z "/>
<path style=" fill:#8D6C9F;" d="M 42.078125 19.578125 C 41.804688 19.332031 41.417969 19.257813 41.070313 19.382813 C 40.722656 19.507813 40.472656 19.816406 40.421875 20.183594 C 40.367188 20.546875 40.523438 20.910156 40.820313 21.128906 C 41.359375 21.570313 41.871094 22.046875 42.339844 22.558594 C 42.710938 22.96875 43.347656 22.996094 43.753906 22.625 C 44.164063 22.253906 44.191406 21.617188 43.820313 21.210938 C 43.28125 20.625 42.699219 20.078125 42.078125 19.578125 Z "/>
<path style=" fill:#8D6C9F;" d="M 21.898438 21.910156 C 22.148438 21.910156 22.386719 21.816406 22.570313 21.648438 C 26.511719 18.078125 32.140625 17.054688 37.089844 19 C 37.597656 19.175781 38.148438 18.917969 38.34375 18.417969 C 38.542969 17.921875 38.308594 17.355469 37.820313 17.140625 C 32.152344 14.925781 25.71875 16.121094 21.21875 20.21875 C 20.914063 20.496094 20.8125 20.933594 20.960938 21.320313 C 21.109375 21.703125 21.476563 21.957031 21.890625 21.960938 Z "/>
<path style=" fill:#8D6C9F;" d="M 32 8 C 32.550781 8 33 7.550781 33 7 L 33 1 C 33 0.449219 32.550781 0 32 0 C 31.449219 0 31 0.449219 31 1 L 31 7 C 31 7.550781 31.449219 8 32 8 Z "/>
<path style=" fill:#8D6C9F;" d="M 32 56 C 31.449219 56 31 56.449219 31 57 L 31 63 C 31 63.550781 31.449219 64 32 64 C 32.550781 64 33 63.550781 33 63 L 33 57 C 33 56.449219 32.550781 56 32 56 Z "/>
<path style=" fill:#8D6C9F;" d="M 8 32 C 8 31.449219 7.550781 31 7 31 L 1 31 C 0.449219 31 0 31.449219 0 32 C 0 32.550781 0.449219 33 1 33 L 7 33 C 7.550781 33 8 32.550781 8 32 Z "/>
<path style=" fill:#8D6C9F;" d="M 63 31 L 57 31 C 56.449219 31 56 31.449219 56 32 C 56 32.550781 56.449219 33 57 33 L 63 33 C 63.550781 33 64 32.550781 64 32 C 64 31.449219 63.550781 31 63 31 Z "/>
<path style=" fill:#8D6C9F;" d="M 21.710938 9.191406 C 21.828125 9.542969 22.132813 9.800781 22.5 9.859375 C 22.867188 9.917969 23.238281 9.769531 23.460938 9.46875 C 23.683594 9.171875 23.71875 8.777344 23.558594 8.441406 L 22.058594 4.730469 C 21.941406 4.378906 21.636719 4.121094 21.269531 4.0625 C 20.902344 4.003906 20.535156 4.152344 20.3125 4.449219 C 20.089844 4.746094 20.050781 5.144531 20.210938 5.480469 Z "/>
<path style=" fill:#8D6C9F;" d="M 42.289063 54.808594 C 42.171875 54.457031 41.867188 54.199219 41.5 54.140625 C 41.132813 54.082031 40.761719 54.230469 40.539063 54.53125 C 40.316406 54.828125 40.28125 55.222656 40.441406 55.558594 L 41.941406 59.269531 C 42.058594 59.621094 42.363281 59.878906 42.730469 59.9375 C 43.097656 59.996094 43.464844 59.847656 43.6875 59.550781 C 43.910156 59.253906 43.949219 58.855469 43.789063 58.519531 Z "/>
<path style=" fill:#8D6C9F;" d="M 9.75 41 C 9.542969 40.488281 8.960938 40.242188 8.449219 40.449219 L 4.738281 41.949219 C 4.386719 42.066406 4.128906 42.371094 4.070313 42.738281 C 4.011719 43.105469 4.160156 43.476563 4.460938 43.699219 C 4.757813 43.921875 5.15625 43.960938 5.488281 43.800781 L 9.199219 42.300781 C 9.710938 42.09375 9.957031 41.511719 9.75 41 Z "/>
<path style=" fill:#8D6C9F;" d="M 54.25 23 C 54.457031 23.511719 55.039063 23.757813 55.550781 23.550781 L 59.261719 22.050781 C 59.738281 21.820313 59.953125 21.261719 59.753906 20.773438 C 59.554688 20.28125 59.011719 20.03125 58.511719 20.199219 L 54.800781 21.699219 C 54.289063 21.90625 54.042969 22.488281 54.25 23 Z "/>
<path style=" fill:#8D6C9F;" d="M 41 9.75 C 41.511719 9.957031 42.09375 9.710938 42.300781 9.199219 L 43.800781 5.488281 C 43.960938 5.15625 43.921875 4.757813 43.699219 4.460938 C 43.476563 4.160156 43.105469 4.011719 42.738281 4.070313 C 42.371094 4.128906 42.066406 4.386719 41.949219 4.738281 L 40.449219 8.449219 C 40.242188 8.960938 40.488281 9.542969 41 9.75 Z "/>
<path style=" fill:#8D6C9F;" d="M 23 54.25 C 22.488281 54.042969 21.90625 54.289063 21.699219 54.800781 L 20.199219 58.511719 C 20.039063 58.84375 20.078125 59.242188 20.300781 59.539063 C 20.523438 59.839844 20.894531 59.988281 21.261719 59.929688 C 21.628906 59.871094 21.933594 59.613281 22.050781 59.261719 L 23.550781 55.550781 C 23.757813 55.039063 23.511719 54.457031 23 54.25 Z "/>
<path style=" fill:#8D6C9F;" d="M 59.261719 41.941406 L 55.550781 40.441406 C 55.050781 40.273438 54.503906 40.523438 54.304688 41.011719 C 54.105469 41.503906 54.324219 42.0625 54.800781 42.289063 L 58.511719 43.789063 C 59.011719 43.957031 59.554688 43.707031 59.753906 43.21875 C 59.953125 42.726563 59.738281 42.167969 59.261719 41.941406 Z "/>
<path style=" fill:#8D6C9F;" d="M 4.738281 22.058594 L 8.449219 23.558594 C 8.949219 23.726563 9.496094 23.476563 9.695313 22.988281 C 9.894531 22.496094 9.675781 21.9375 9.199219 21.710938 L 5.488281 20.210938 C 4.988281 20.042969 4.445313 20.292969 4.246094 20.78125 C 4.046875 21.273438 4.261719 21.832031 4.738281 22.058594 Z "/>
<path style=" fill:#8D6C9F;" d="M 13.621094 15 C 14.015625 15.25 14.53125 15.195313 14.863281 14.863281 C 15.195313 14.53125 15.25 14.015625 15 13.621094 L 10.789063 9.371094 C 10.394531 9.03125 9.800781 9.054688 9.433594 9.421875 C 9.0625 9.792969 9.039063 10.382813 9.378906 10.78125 Z "/>
<path style=" fill:#8D6C9F;" d="M 50.378906 49 C 49.984375 48.75 49.46875 48.804688 49.136719 49.136719 C 48.804688 49.46875 48.75 49.984375 49 50.378906 L 53.238281 54.621094 C 53.636719 54.960938 54.226563 54.9375 54.597656 54.566406 C 54.96875 54.199219 54.988281 53.605469 54.648438 53.210938 Z "/>
<path style=" fill:#8D6C9F;" d="M 13.621094 49 L 9.371094 53.210938 C 9.085938 53.453125 8.960938 53.839844 9.046875 54.203125 C 9.136719 54.570313 9.421875 54.855469 9.785156 54.941406 C 10.152344 55.03125 10.535156 54.90625 10.78125 54.621094 L 15 50.378906 C 15.25 49.984375 15.195313 49.46875 14.863281 49.136719 C 14.53125 48.804688 14.015625 48.75 13.621094 49 Z "/>
<path style=" fill:#8D6C9F;" d="M 49.679688 15.320313 C 49.945313 15.320313 50.203125 15.21875 50.390625 15.03125 L 54.628906 10.789063 C 54.96875 10.394531 54.945313 9.800781 54.578125 9.433594 C 54.207031 9.0625 53.617188 9.039063 53.21875 9.378906 L 49 13.621094 C 48.710938 13.90625 48.625 14.339844 48.78125 14.714844 C 48.9375 15.089844 49.304688 15.332031 49.710938 15.328125 Z "/>
<path style=" fill:#8D6C9F;" d="M 32 44 C 31.449219 44 31 44.449219 31 45 L 31 47 C 31 47.550781 31.449219 48 32 48 C 32.550781 48 33 47.550781 33 47 L 33 45 C 33 44.449219 32.550781 44 32 44 Z "/>
<path style=" fill:#8D6C9F;" d="M 37.800781 43.679688 C 37.683594 43.328125 37.378906 43.070313 37.011719 43.011719 C 36.644531 42.953125 36.273438 43.101563 36.050781 43.398438 C 35.828125 43.699219 35.789063 44.09375 35.949219 44.429688 L 36.699219 46.28125 C 36.816406 46.632813 37.121094 46.890625 37.488281 46.949219 C 37.855469 47.007813 38.226563 46.859375 38.449219 46.558594 C 38.671875 46.261719 38.710938 45.867188 38.550781 45.53125 Z "/>
<path style=" fill:#8D6C9F;" d="M 27.5 43.128906 C 26.988281 42.925781 26.40625 43.167969 26.199219 43.679688 L 25.449219 45.53125 C 25.289063 45.867188 25.328125 46.261719 25.550781 46.558594 C 25.773438 46.859375 26.144531 47.007813 26.511719 46.949219 C 26.878906 46.890625 27.183594 46.632813 27.300781 46.28125 L 28.050781 44.429688 C 28.257813 43.917969 28.011719 43.339844 27.5 43.128906 Z "/>
<path style=" fill:#8D6C9F;" d="M 22.101563 40.488281 L 20.691406 41.898438 C 20.40625 42.144531 20.28125 42.527344 20.367188 42.894531 C 20.457031 43.257813 20.742188 43.542969 21.105469 43.632813 C 21.472656 43.71875 21.855469 43.59375 22.101563 43.308594 L 23.511719 41.898438 C 23.851563 41.503906 23.828125 40.910156 23.457031 40.542969 C 23.089844 40.171875 22.496094 40.148438 22.101563 40.488281 Z "/>
<path style=" fill:#8D6C9F;" d="M 21 36.691406 C 20.785156 36.183594 20.199219 35.945313 19.691406 36.160156 L 17.851563 36.941406 C 17.507813 37.070313 17.261719 37.375 17.214844 37.738281 C 17.164063 38.101563 17.316406 38.464844 17.613281 38.679688 C 17.90625 38.898438 18.296875 38.9375 18.628906 38.78125 L 20.421875 38 C 20.671875 37.90625 20.878906 37.714844 20.988281 37.46875 C 21.09375 37.21875 21.101563 36.941406 21 36.691406 Z "/>
</g>
</svg>
